<?xml version="1.0" encoding="UTF-8" standalone="no"?>
<!DOCTYPE svg PUBLIC "-//W3C//DTD SVG 1.1//EN"
 "http://www.w3.org/Graphics/SVG/1.1/DTD/svg11.dtd">
<!-- Generated by graphviz version 2.43.0 (0)
 -->
<!-- Title: %3 Pages: 1 -->
<svg width="1180pt" height="537pt"
 viewBox="0.00 0.00 1180.00 536.50" xmlns="http://www.w3.org/2000/svg" xmlns:xlink="http://www.w3.org/1999/xlink">
<g id="graph0" class="graph" transform="scale(1 1) rotate(0) translate(4 532.5)">
<title>%3</title>
<polygon fill="white" stroke="transparent" points="-4,4 -4,-532.5 1176,-532.5 1176,4 -4,4"/>
<!-- PYTHON -->
<g id="node1" class="node">
<title>PYTHON</title>
<polygon fill="lemonchiffon" stroke="black" stroke-width="2" points="80,-166.5 77,-170.5 56,-170.5 53,-166.5 0,-166.5 0,-130.5 80,-130.5 80,-166.5"/>
<text text-anchor="start" x="8" y="-144.8" font-family="Times,serif" font-size="14.00">PYTHON</text>
</g>
<!-- PYTHONCOMPLETION -->
<g id="node2" class="node">
<title>PYTHONCOMPLETION</title>
<polygon fill="lemonchiffon" stroke="black" stroke-width="2" points="235,-228.5 232,-232.5 211,-232.5 208,-228.5 116,-228.5 116,-192.5 235,-192.5 235,-228.5"/>
<text text-anchor="start" x="124" y="-206.8" font-family="Times,serif" font-size="14.00">COMPLETION</text>
</g>
<!-- PYTHON&#45;&gt;PYTHONCOMPLETION -->
<g id="edge1" class="edge">
<title>PYTHON&#45;&gt;PYTHONCOMPLETION</title>
<path fill="none" stroke="black" d="M79.97,-166.6C94.5,-173.35 111.17,-181.09 126.43,-188.17"/>
<polygon fill="black" stroke="black" points="125.17,-191.45 135.71,-192.49 128.11,-185.1 125.17,-191.45"/>
</g>
<!-- PYTHONHELPERS -->
<g id="node3" class="node">
<title>PYTHONHELPERS</title>
<polygon fill="lemonchiffon" stroke="black" stroke-width="2" points="220,-139.5 217,-143.5 196,-143.5 193,-139.5 131,-139.5 131,-103.5 220,-103.5 220,-139.5"/>
<text text-anchor="start" x="139" y="-117.8" font-family="Times,serif" font-size="14.00">HELPERS</text>
</g>
<!-- PYTHON&#45;&gt;PYTHONHELPERS -->
<g id="edge2" class="edge">
<title>PYTHON&#45;&gt;PYTHONHELPERS</title>
<path fill="none" stroke="black" d="M80.33,-140.55C92.96,-137.99 107.17,-135.12 120.65,-132.39"/>
<polygon fill="black" stroke="black" points="121.67,-135.76 130.78,-130.34 120.28,-128.9 121.67,-135.76"/>
</g>
<!-- PYTHONCOMPLETIONMASTER_CATALOG -->
<g id="node4" class="node">
<title>PYTHONCOMPLETIONMASTER_CATALOG</title>
<polygon fill="lemonchiffon" stroke="black" stroke-width="2" points="452,-283.5 449,-287.5 428,-287.5 425,-283.5 296,-283.5 296,-247.5 452,-247.5 452,-283.5"/>
<text text-anchor="start" x="304" y="-261.8" font-family="Times,serif" font-size="14.00">MASTER_CATALOG</text>
</g>
<!-- PYTHONCOMPLETION&#45;&gt;PYTHONCOMPLETIONMASTER_CATALOG -->
<g id="edge3" class="edge">
<title>PYTHONCOMPLETION&#45;&gt;PYTHONCOMPLETIONMASTER_CATALOG</title>
<path fill="none" stroke="black" d="M235,-227.83C254.34,-233.56 271,-238.5 271,-238.5 271,-238.5 281.26,-241.22 295.28,-244.93"/>
<polygon fill="black" stroke="black" points="294.4,-248.32 304.96,-247.49 296.19,-241.55 294.4,-248.32"/>
</g>
<!-- 1plot_completion.py\lbuild_completion_array.py\l -->
<g id="node5" class="node">
<title>1plot_completion.py\lbuild_completion_array.py\l</title>
<polygon fill="none" stroke="black" points="475.5,-229.5 272.5,-229.5 272.5,-191.5 475.5,-191.5 475.5,-229.5"/>
<text text-anchor="start" x="280.5" y="-214.3" font-family="Times,serif" font-size="14.00">plot_completion.py</text>
<text text-anchor="start" x="280.5" y="-199.3" font-family="Times,serif" font-size="14.00">build_completion_array.py</text>
</g>
<!-- PYTHONCOMPLETION&#45;&gt;1plot_completion.py\lbuild_completion_array.py\l -->
<g id="edge4" class="edge">
<title>PYTHONCOMPLETION&#45;&gt;1plot_completion.py\lbuild_completion_array.py\l</title>
<path fill="none" stroke="black" d="M235.19,-210.5C243.83,-210.5 252.95,-210.5 262.23,-210.5"/>
<polygon fill="black" stroke="black" points="262.34,-214 272.34,-210.5 262.34,-207 262.34,-214"/>
</g>
<!-- 11dwarf_cutout.py\lexperiment.py\lmake_random_cutouts.py\lexperiment2.py\lnewfits.py\lcompletion_line_graphs.py\lbin_individual.py\lsampler.py\lrunner.py\ltesting_sersic.py\lregion_cutter.py\l -->
<g id="node23" class="node">
<title>11dwarf_cutout.py\lexperiment.py\lmake_random_cutouts.py\lexperiment2.py\lnewfits.py\lcompletion_line_graphs.py\lbin_individual.py\lsampler.py\lrunner.py\ltesting_sersic.py\lregion_cutter.py\l</title>
<polygon fill="none" stroke="black" points="477,-173 271,-173 271,0 477,0 477,-173"/>
<text text-anchor="start" x="279" y="-157.8" font-family="Times,serif" font-size="14.00">dwarf_cutout.py</text>
<text text-anchor="start" x="279" y="-142.8" font-family="Times,serif" font-size="14.00">experiment.py</text>
<text text-anchor="start" x="279" y="-127.8" font-family="Times,serif" font-size="14.00">make_random_cutouts.py</text>
<text text-anchor="start" x="279" y="-112.8" font-family="Times,serif" font-size="14.00">experiment2.py</text>
<text text-anchor="start" x="279" y="-97.8" font-family="Times,serif" font-size="14.00">newfits.py</text>
<text text-anchor="start" x="279" y="-82.8" font-family="Times,serif" font-size="14.00">completion_line_graphs.py</text>
<text text-anchor="start" x="279" y="-67.8" font-family="Times,serif" font-size="14.00">bin_individual.py</text>
<text text-anchor="start" x="279" y="-52.8" font-family="Times,serif" font-size="14.00">sampler.py</text>
<text text-anchor="start" x="279" y="-37.8" font-family="Times,serif" font-size="14.00">runner.py</text>
<text text-anchor="start" x="279" y="-22.8" font-family="Times,serif" font-size="14.00">testing_sersic.py</text>
<text text-anchor="start" x="279" y="-7.8" font-family="Times,serif" font-size="14.00">region_cutter.py</text>
</g>
<!-- PYTHONHELPERS&#45;&gt;11dwarf_cutout.py\lexperiment.py\lmake_random_cutouts.py\lexperiment2.py\lnewfits.py\lcompletion_line_graphs.py\lbin_individual.py\lsampler.py\lrunner.py\ltesting_sersic.py\lregion_cutter.py\l -->
<g id="edge22" class="edge">
<title>PYTHONHELPERS&#45;&gt;11dwarf_cutout.py\lexperiment.py\lmake_random_cutouts.py\lexperiment2.py\lnewfits.py\lcompletion_line_graphs.py\lbin_individual.py\lsampler.py\lrunner.py\ltesting_sersic.py\lregion_cutter.py\l</title>
<path fill="none" stroke="black" d="M220.11,-113.73C232.42,-111.54 246.41,-109.05 260.8,-106.48"/>
<polygon fill="black" stroke="black" points="261.59,-109.9 270.82,-104.7 260.36,-103.01 261.59,-109.9"/>
</g>
<!-- PYTHONCOMPLETIONMASTER_CATALOGARTIFICIAL -->
<g id="node6" class="node">
<title>PYTHONCOMPLETIONMASTER_CATALOGARTIFICIAL</title>
<polygon fill="lemonchiffon" stroke="black" stroke-width="2" points="656,-420.5 653,-424.5 632,-424.5 629,-420.5 555,-420.5 555,-384.5 656,-384.5 656,-420.5"/>
<text text-anchor="start" x="563" y="-398.8" font-family="Times,serif" font-size="14.00">ARTIFICIAL</text>
</g>
<!-- PYTHONCOMPLETIONMASTER_CATALOG&#45;&gt;PYTHONCOMPLETIONMASTER_CATALOGARTIFICIAL -->
<g id="edge5" class="edge">
<title>PYTHONCOMPLETIONMASTER_CATALOG&#45;&gt;PYTHONCOMPLETIONMASTER_CATALOGARTIFICIAL</title>
<path fill="none" stroke="black" d="M405.48,-283.69C446.74,-308.33 520.41,-352.3 565.62,-379.29"/>
<polygon fill="black" stroke="black" points="563.88,-382.33 574.26,-384.45 567.47,-376.32 563.88,-382.33"/>
</g>
<!-- PYTHONCOMPLETIONMASTER_CATALOGcatalog -->
<g id="node7" class="node">
<title>PYTHONCOMPLETIONMASTER_CATALOGcatalog</title>
<polygon fill="lemonchiffon" stroke="black" stroke-width="2" points="639.5,-311.5 636.5,-315.5 615.5,-315.5 612.5,-311.5 571.5,-311.5 571.5,-275.5 639.5,-275.5 639.5,-311.5"/>
<text text-anchor="start" x="579.5" y="-289.8" font-family="Times,serif" font-size="14.00">catalog</text>
</g>
<!-- PYTHONCOMPLETIONMASTER_CATALOG&#45;&gt;PYTHONCOMPLETIONMASTER_CATALOGcatalog -->
<g id="edge6" class="edge">
<title>PYTHONCOMPLETIONMASTER_CATALOG&#45;&gt;PYTHONCOMPLETIONMASTER_CATALOGcatalog</title>
<path fill="none" stroke="black" d="M452.06,-274.9C488.56,-279.35 530.79,-284.51 561.53,-288.26"/>
<polygon fill="black" stroke="black" points="561.14,-291.74 571.49,-289.47 561.99,-284.79 561.14,-291.74"/>
</g>
<!-- PYTHONCOMPLETIONMASTER_CATALOGDETECTION -->
<g id="node8" class="node">
<title>PYTHONCOMPLETIONMASTER_CATALOGDETECTION</title>
<polygon fill="lemonchiffon" stroke="black" stroke-width="2" points="658.5,-256.5 655.5,-260.5 634.5,-260.5 631.5,-256.5 552.5,-256.5 552.5,-220.5 658.5,-220.5 658.5,-256.5"/>
<text text-anchor="start" x="560.5" y="-234.8" font-family="Times,serif" font-size="14.00">DETECTION</text>
</g>
<!-- PYTHONCOMPLETIONMASTER_CATALOG&#45;&gt;PYTHONCOMPLETIONMASTER_CATALOGDETECTION -->
<g id="edge7" class="edge">
<title>PYTHONCOMPLETIONMASTER_CATALOG&#45;&gt;PYTHONCOMPLETIONMASTER_CATALOGDETECTION</title>
<path fill="none" stroke="black" d="M452.06,-256.43C481.4,-252.98 514.44,-249.1 542.24,-245.82"/>
<polygon fill="black" stroke="black" points="542.71,-249.29 552.23,-244.65 541.89,-242.34 542.71,-249.29"/>
</g>
<!-- 2get_master_catalogs.py\l -->
<g id="node9" class="node">
<title>2get_master_catalogs.py\l</title>
<polygon fill="none" stroke="black" points="698,-202.5 513,-202.5 513,-166.5 698,-166.5 698,-202.5"/>
<text text-anchor="start" x="521" y="-180.8" font-family="Times,serif" font-size="14.00">get_master_catalogs.py</text>
</g>
<!-- PYTHONCOMPLETIONMASTER_CATALOG&#45;&gt;2get_master_catalogs.py\l -->
<g id="edge8" class="edge">
<title>PYTHONCOMPLETIONMASTER_CATALOG&#45;&gt;2get_master_catalogs.py\l</title>
<path fill="none" stroke="black" d="M443.04,-247.49C461.75,-242.54 477,-238.5 477,-238.5 477,-238.5 513,-211.5 513,-211.5 513,-211.5 521.69,-208.94 533.71,-205.39"/>
<polygon fill="black" stroke="black" points="534.87,-208.7 543.47,-202.51 532.89,-201.98 534.87,-208.7"/>
</g>
<!-- PYTHONCOMPLETIONMASTER_CATALOGARTIFICIALartificial -->
<g id="node10" class="node">
<title>PYTHONCOMPLETIONMASTER_CATALOGARTIFICIALartificial</title>
<polygon fill="lemonchiffon" stroke="black" stroke-width="2" points="869,-528.5 866,-532.5 845,-532.5 842,-528.5 793,-528.5 793,-492.5 869,-492.5 869,-528.5"/>
<text text-anchor="start" x="801" y="-506.8" font-family="Times,serif" font-size="14.00">artificial</text>
</g>
<!-- PYTHONCOMPLETIONMASTER_CATALOGARTIFICIAL&#45;&gt;PYTHONCOMPLETIONMASTER_CATALOGARTIFICIALartificial -->
<g id="edge9" class="edge">
<title>PYTHONCOMPLETIONMASTER_CATALOGARTIFICIAL&#45;&gt;PYTHONCOMPLETIONMASTER_CATALOGARTIFICIALartificial</title>
<path fill="none" stroke="black" d="M635.11,-420.68C672.7,-444.56 734,-483.5 734,-483.5 734,-483.5 758.84,-490.49 783.25,-497.35"/>
<polygon fill="black" stroke="black" points="782.31,-500.72 792.88,-500.06 784.21,-493.98 782.31,-500.72"/>
</g>
<!-- PYTHONCOMPLETIONMASTER_CATALOGARTIFICIALpsfs -->
<g id="node11" class="node">
<title>PYTHONCOMPLETIONMASTER_CATALOGARTIFICIALpsfs</title>
<polygon fill="lemonchiffon" stroke="black" stroke-width="2" points="858,-474.5 855,-478.5 834,-478.5 831,-474.5 804,-474.5 804,-438.5 858,-438.5 858,-474.5"/>
<text text-anchor="start" x="812" y="-452.8" font-family="Times,serif" font-size="14.00">psfs</text>
</g>
<!-- PYTHONCOMPLETIONMASTER_CATALOGARTIFICIAL&#45;&gt;PYTHONCOMPLETIONMASTER_CATALOGARTIFICIALpsfs -->
<g id="edge10" class="edge">
<title>PYTHONCOMPLETIONMASTER_CATALOGARTIFICIAL&#45;&gt;PYTHONCOMPLETIONMASTER_CATALOGARTIFICIALpsfs</title>
<path fill="none" stroke="black" d="M656.1,-414.48C697.83,-424.57 756.52,-438.75 793.9,-447.78"/>
<polygon fill="black" stroke="black" points="793.31,-451.24 803.85,-450.18 794.95,-444.43 793.31,-451.24"/>
</g>
<!-- PYTHONCOMPLETIONMASTER_CATALOGARTIFICIALstats -->
<g id="node12" class="node">
<title>PYTHONCOMPLETIONMASTER_CATALOGARTIFICIALstats</title>
<polygon fill="lemonchiffon" stroke="black" stroke-width="2" points="858,-420.5 855,-424.5 834,-424.5 831,-420.5 804,-420.5 804,-384.5 858,-384.5 858,-420.5"/>
<text text-anchor="start" x="812" y="-398.8" font-family="Times,serif" font-size="14.00">stats</text>
</g>
<!-- PYTHONCOMPLETIONMASTER_CATALOGARTIFICIAL&#45;&gt;PYTHONCOMPLETIONMASTER_CATALOGARTIFICIALstats -->
<g id="edge11" class="edge">
<title>PYTHONCOMPLETIONMASTER_CATALOGARTIFICIAL&#45;&gt;PYTHONCOMPLETIONMASTER_CATALOGARTIFICIALstats</title>
<path fill="none" stroke="black" d="M656.1,-402.5C697.65,-402.5 756.02,-402.5 793.42,-402.5"/>
<polygon fill="black" stroke="black" points="793.85,-406 803.85,-402.5 793.85,-399 793.85,-406"/>
</g>
<!-- 3get_artificial_catalog.py\l -->
<g id="node13" class="node">
<title>3get_artificial_catalog.py\l</title>
<polygon fill="none" stroke="black" points="924,-366.5 738,-366.5 738,-330.5 924,-330.5 924,-366.5"/>
<text text-anchor="start" x="746" y="-344.8" font-family="Times,serif" font-size="14.00">get_artificial_catalog.py</text>
</g>
<!-- PYTHONCOMPLETIONMASTER_CATALOGARTIFICIAL&#45;&gt;3get_artificial_catalog.py\l -->
<g id="edge12" class="edge">
<title>PYTHONCOMPLETIONMASTER_CATALOGARTIFICIAL&#45;&gt;3get_artificial_catalog.py\l</title>
<path fill="none" stroke="black" d="M656.1,-390.52C682.33,-384.18 715.26,-376.22 745.38,-368.94"/>
<polygon fill="black" stroke="black" points="746.58,-372.26 755.48,-366.51 744.93,-365.45 746.58,-372.26"/>
</g>
<!-- 7create_match_catalog.py\lcombine_catalogs.py\l -->
<g id="node17" class="node">
<title>7create_match_catalog.py\lcombine_catalogs.py\l</title>
<polygon fill="none" stroke="black" points="927.5,-312.5 734.5,-312.5 734.5,-274.5 927.5,-274.5 927.5,-312.5"/>
<text text-anchor="start" x="742.5" y="-297.3" font-family="Times,serif" font-size="14.00">create_match_catalog.py</text>
<text text-anchor="start" x="742.5" y="-282.3" font-family="Times,serif" font-size="14.00">combine_catalogs.py</text>
</g>
<!-- PYTHONCOMPLETIONMASTER_CATALOGcatalog&#45;&gt;7create_match_catalog.py\lcombine_catalogs.py\l -->
<g id="edge16" class="edge">
<title>PYTHONCOMPLETIONMASTER_CATALOGcatalog&#45;&gt;7create_match_catalog.py\lcombine_catalogs.py\l</title>
<path fill="none" stroke="black" d="M639.96,-293.5C662.5,-293.5 693.57,-293.5 724.07,-293.5"/>
<polygon fill="black" stroke="black" points="724.38,-297 734.38,-293.5 724.38,-290 724.38,-297"/>
</g>
<!-- PYTHONCOMPLETIONMASTER_CATALOGDETECTIONsextractor -->
<g id="node18" class="node">
<title>PYTHONCOMPLETIONMASTER_CATALOGDETECTIONsextractor</title>
<polygon fill="lemonchiffon" stroke="black" stroke-width="2" points="876,-256.5 873,-260.5 852,-260.5 849,-256.5 786,-256.5 786,-220.5 876,-220.5 876,-256.5"/>
<text text-anchor="start" x="794" y="-234.8" font-family="Times,serif" font-size="14.00">sextractor</text>
</g>
<!-- PYTHONCOMPLETIONMASTER_CATALOGDETECTION&#45;&gt;PYTHONCOMPLETIONMASTER_CATALOGDETECTIONsextractor -->
<g id="edge17" class="edge">
<title>PYTHONCOMPLETIONMASTER_CATALOGDETECTION&#45;&gt;PYTHONCOMPLETIONMASTER_CATALOGDETECTIONsextractor</title>
<path fill="none" stroke="black" d="M658.62,-238.5C693.72,-238.5 739.93,-238.5 775.51,-238.5"/>
<polygon fill="black" stroke="black" points="775.72,-242 785.72,-238.5 775.72,-235 775.72,-242"/>
</g>
<!-- PYTHONCOMPLETIONMASTER_CATALOGDETECTIONdetection -->
<g id="node19" class="node">
<title>PYTHONCOMPLETIONMASTER_CATALOGDETECTIONdetection</title>
<polygon fill="lemonchiffon" stroke="black" stroke-width="2" points="872.5,-202.5 869.5,-206.5 848.5,-206.5 845.5,-202.5 789.5,-202.5 789.5,-166.5 872.5,-166.5 872.5,-202.5"/>
<text text-anchor="start" x="797.5" y="-180.8" font-family="Times,serif" font-size="14.00">detection</text>
</g>
<!-- PYTHONCOMPLETIONMASTER_CATALOGDETECTION&#45;&gt;PYTHONCOMPLETIONMASTER_CATALOGDETECTIONdetection -->
<g id="edge18" class="edge">
<title>PYTHONCOMPLETIONMASTER_CATALOGDETECTION&#45;&gt;PYTHONCOMPLETIONMASTER_CATALOGDETECTIONdetection</title>
<path fill="none" stroke="black" d="M658.62,-225.91C695.05,-217.11 743.44,-205.41 779.51,-196.7"/>
<polygon fill="black" stroke="black" points="780.44,-200.08 789.34,-194.32 778.79,-193.27 780.44,-200.08"/>
</g>
<!-- 8get_detection_catalog.py\l -->
<g id="node20" class="node">
<title>8get_detection_catalog.py\l</title>
<polygon fill="none" stroke="black" points="928,-148.5 734,-148.5 734,-112.5 928,-112.5 928,-148.5"/>
<text text-anchor="start" x="742" y="-126.8" font-family="Times,serif" font-size="14.00">get_detection_catalog.py</text>
</g>
<!-- PYTHONCOMPLETIONMASTER_CATALOGDETECTION&#45;&gt;8get_detection_catalog.py\l -->
<g id="edge19" class="edge">
<title>PYTHONCOMPLETIONMASTER_CATALOGDETECTION&#45;&gt;8get_detection_catalog.py\l</title>
<path fill="none" stroke="black" d="M658.66,-223.11C679.21,-217.04 698,-211.5 698,-211.5 698,-211.5 734,-157.5 734,-157.5 734,-157.5 743.3,-154.89 756.1,-151.28"/>
<polygon fill="black" stroke="black" points="757.29,-154.59 765.97,-148.51 755.39,-147.85 757.29,-154.59"/>
</g>
<!-- 4create_convolve_dwarfs.py\l -->
<g id="node14" class="node">
<title>4create_convolve_dwarfs.py\l</title>
<polygon fill="none" stroke="black" points="1172,-528.5 964,-528.5 964,-492.5 1172,-492.5 1172,-528.5"/>
<text text-anchor="start" x="972" y="-506.8" font-family="Times,serif" font-size="14.00">create_convolve_dwarfs.py</text>
</g>
<!-- PYTHONCOMPLETIONMASTER_CATALOGARTIFICIALartificial&#45;&gt;4create_convolve_dwarfs.py\l -->
<g id="edge13" class="edge">
<title>PYTHONCOMPLETIONMASTER_CATALOGARTIFICIALartificial&#45;&gt;4create_convolve_dwarfs.py\l</title>
<path fill="none" stroke="black" d="M869.24,-510.5C892.2,-510.5 923,-510.5 953.45,-510.5"/>
<polygon fill="black" stroke="black" points="953.75,-514 963.75,-510.5 953.75,-507 953.75,-514"/>
</g>
<!-- 5KK98a189_psf.fits\l -->
<g id="node15" class="node">
<title>5KK98a189_psf.fits\l</title>
<polygon fill="none" stroke="black" points="1141,-474.5 995,-474.5 995,-438.5 1141,-438.5 1141,-474.5"/>
<text text-anchor="start" x="1003" y="-452.8" font-family="Times,serif" font-size="14.00">KK98a189_psf.fits</text>
</g>
<!-- PYTHONCOMPLETIONMASTER_CATALOGARTIFICIALpsfs&#45;&gt;5KK98a189_psf.fits\l -->
<g id="edge14" class="edge">
<title>PYTHONCOMPLETIONMASTER_CATALOGARTIFICIALpsfs&#45;&gt;5KK98a189_psf.fits\l</title>
<path fill="none" stroke="black" d="M858.05,-456.5C888.42,-456.5 940.14,-456.5 984.53,-456.5"/>
<polygon fill="black" stroke="black" points="984.75,-460 994.75,-456.5 984.75,-453 984.75,-460"/>
</g>
<!-- 6deltatable.py\lhistograms.py\loutliers.py\l -->
<g id="node16" class="node">
<title>6deltatable.py\lhistograms.py\loutliers.py\l</title>
<polygon fill="none" stroke="black" points="1127.5,-420 1008.5,-420 1008.5,-367 1127.5,-367 1127.5,-420"/>
<text text-anchor="start" x="1016.5" y="-404.8" font-family="Times,serif" font-size="14.00">deltatable.py</text>
<text text-anchor="start" x="1016.5" y="-389.8" font-family="Times,serif" font-size="14.00">histograms.py</text>
<text text-anchor="start" x="1016.5" y="-374.8" font-family="Times,serif" font-size="14.00">outliers.py</text>
</g>
<!-- PYTHONCOMPLETIONMASTER_CATALOGARTIFICIALstats&#45;&gt;6deltatable.py\lhistograms.py\loutliers.py\l -->
<g id="edge15" class="edge">
<title>PYTHONCOMPLETIONMASTER_CATALOGARTIFICIALstats&#45;&gt;6deltatable.py\lhistograms.py\loutliers.py\l</title>
<path fill="none" stroke="black" d="M858.05,-401.5C891.56,-400.22 951.04,-397.94 998,-396.14"/>
<polygon fill="black" stroke="black" points="998.26,-399.64 1008.11,-395.76 997.99,-392.64 998.26,-399.64"/>
</g>
<!-- 9getobjects.param\lsex.xml\ldefault.conv\lgetdetections.sex\lgetobjects.sex\ldefault.nnw\lgetdetections.param\l -->
<g id="node21" class="node">
<title>9getobjects.param\lsex.xml\ldefault.conv\lgetdetections.sex\lgetobjects.sex\ldefault.nnw\lgetdetections.param\l</title>
<polygon fill="none" stroke="black" points="1150,-319 986,-319 986,-206 1150,-206 1150,-319"/>
<text text-anchor="start" x="994" y="-303.8" font-family="Times,serif" font-size="14.00">getobjects.param</text>
<text text-anchor="start" x="994" y="-288.8" font-family="Times,serif" font-size="14.00">sex.xml</text>
<text text-anchor="start" x="994" y="-273.8" font-family="Times,serif" font-size="14.00">default.conv</text>
<text text-anchor="start" x="994" y="-258.8" font-family="Times,serif" font-size="14.00">getdetections.sex</text>
<text text-anchor="start" x="994" y="-243.8" font-family="Times,serif" font-size="14.00">getobjects.sex</text>
<text text-anchor="start" x="994" y="-228.8" font-family="Times,serif" font-size="14.00">default.nnw</text>
<text text-anchor="start" x="994" y="-213.8" font-family="Times,serif" font-size="14.00">getdetections.param</text>
</g>
<!-- PYTHONCOMPLETIONMASTER_CATALOGDETECTIONsextractor&#45;&gt;9getobjects.param\lsex.xml\ldefault.conv\lgetdetections.sex\lgetobjects.sex\ldefault.nnw\lgetdetections.param\l -->
<g id="edge20" class="edge">
<title>PYTHONCOMPLETIONMASTER_CATALOGDETECTIONsextractor&#45;&gt;9getobjects.param\lsex.xml\ldefault.conv\lgetdetections.sex\lgetobjects.sex\ldefault.nnw\lgetdetections.param\l</title>
<path fill="none" stroke="black" d="M876.2,-243.01C904.28,-245.88 941.65,-249.7 975.87,-253.19"/>
<polygon fill="black" stroke="black" points="975.6,-256.68 985.9,-254.22 976.31,-249.72 975.6,-256.68"/>
</g>
<!-- 10filter_table.py\lbin_image.py\lmask_image.py\l -->
<g id="node22" class="node">
<title>10filter_table.py\lbin_image.py\lmask_image.py\l</title>
<polygon fill="none" stroke="black" points="1131,-188 1005,-188 1005,-135 1131,-135 1131,-188"/>
<text text-anchor="start" x="1013" y="-172.8" font-family="Times,serif" font-size="14.00">filter_table.py</text>
<text text-anchor="start" x="1013" y="-157.8" font-family="Times,serif" font-size="14.00">bin_image.py</text>
<text text-anchor="start" x="1013" y="-142.8" font-family="Times,serif" font-size="14.00">mask_image.py</text>
</g>
<!-- PYTHONCOMPLETIONMASTER_CATALOGDETECTIONdetection&#45;&gt;10filter_table.py\lbin_image.py\lmask_image.py\l -->
<g id="edge21" class="edge">
<title>PYTHONCOMPLETIONMASTER_CATALOGDETECTIONdetection&#45;&gt;10filter_table.py\lbin_image.py\lmask_image.py\l</title>
<path fill="none" stroke="black" d="M872.67,-180.52C906.21,-177.24 954.64,-172.5 994.75,-168.57"/>
<polygon fill="black" stroke="black" points="995.15,-172.05 1004.76,-167.59 994.47,-165.08 995.15,-172.05"/>
</g>
</g>
</svg>
